<svg xmlns="http://www.w3.org/2000/svg" xmlns:xlink="http://www.w3.org/1999/xlink" viewBox="0 0 225.88 377.86"><defs><style>.cls-1{fill:url(#linear-gradient);}.cls-2{fill:url(#linear-gradient-2);}.cls-3{fill:url(#linear-gradient-3);}.cls-4{fill:url(#linear-gradient-4);}.cls-5{fill:#d2edf3;stroke:#d2edf3;stroke-miterlimit:10;stroke-width:2px;}</style><linearGradient id="linear-gradient" x1="113.37" y1="149.25" x2="113.37" y2="374.25" gradientUnits="userSpaceOnUse"><stop offset="0" stop-color="#d2edf3"/><stop offset="0.98" stop-color="#9fc8eb"/><stop offset="1"/></linearGradient><linearGradient id="linear-gradient-2" x1="150.57" y1="277.16" x2="150.57" y2="300.02" xlink:href="#linear-gradient"/><linearGradient id="linear-gradient-3" x1="151.95" y1="204.31" x2="151.95" y2="210.54" xlink:href="#linear-gradient"/><linearGradient id="linear-gradient-4" x1="144.23" y1="180.93" x2="144.23" y2="190.13" xlink:href="#linear-gradient"/></defs><g id="Layer_2" data-name="Layer 2"><g id="txt"><path class="cls-1" d="M195,244.2c12.45,26-3.4,34.9-3.4,34.9C187.5,263.57,163.18,222,163.18,222l16.49-22.63-15.42,4.73-18.34-27.68a14.94,14.94,0,0,0-12.84,10.93L136.12,222s-10.92,22.79-10.92,33.08,3.21,28.2,3.21,28.2l-3.21,15v.17H1.15S-2,236.45,12.67,153.2l.9.16h70.1s-5-13.88-30.84-11c0,0-8.15-21.1-32.1-21.92l-1.13-.3C37,52.89,73.55-.66,113.46,0h0c30-.5,58.1,29.63,77.6,73.19C167.9,74.58,160,95.07,160,95.07c-25.88-2.92-30.84,11-30.84,11h74.2a330.47,330.47,0,0,1,8.59,34.46c17.32,89.57,13.62,158,13.62,158H175.68v-.17s7.26-.38,17.72-5.89C218.54,279.7,195.89,245.58,195,244.2ZM102.06,77.6c-19.84,0-21.16-30-21.16-30s-1.32,30-21.17,30c19.85,0,21.17,30.05,21.17,30.05S82.22,77.6,102.06,77.6Z"/><path class="cls-2" d="M158.2,256.14s3.86-1.29,3.8,1.24-.76,2.36-.76,2.36c-27,5.85-15.83,38.59-15.83,38.59v.17H140.8v-.17S131.19,262,158.2,256.14Z"/><circle class="cls-3" cx="151.95" cy="204.31" r="3.11"/><path class="cls-4" d="M145.64,178.44l3.19,5s-9.76-1.74-9.17-2.15C140.94,179,145.64,178.44,145.64,178.44Z"/><path class="cls-5" d="M1,318.1H28.8v2.4H16.23v41.83H13.57V320.5H1Z"/><path class="cls-5" d="M28.86,324.58a1.9,1.9,0,1,1-1.89,1.9A1.8,1.8,0,0,1,28.86,324.58Zm1.2,7.8v29.95h-2.4V332.38Z"/><path class="cls-5" d="M38.34,345.14c0-4.61.88-9.35,6.44-12.13a12.9,12.9,0,0,1,11.12,0c5.56,2.78,6.45,7.52,6.45,12.13v17.19H60V345.4c0-4.36-.89-8.28-5.12-10.37a10.46,10.46,0,0,0-9,0c-4.24,2.09-5.12,6-5.12,10.37v16.93h-2.4Z"/><path class="cls-5" d="M72.33,332.38v16.93c0,1.58.19,4.87,1.39,7a9.41,9.41,0,0,0,8.21,4.36,9.18,9.18,0,0,0,8.22-4.49,15.25,15.25,0,0,0,1.39-6.89V332.38h2.4v17.19c0,11.05-7.52,12.95-10.81,13.26V376h-2.4V362.83c-10.61-.75-10.8-10.86-10.8-13.26V332.38Z"/><path class="cls-5" d="M116.49,318.1h8.59c4.11,0,14.47.63,20.54,11.06a22.06,22.06,0,0,1,0,22.11c-6.07,10.43-16.49,11.06-20.35,11.06h-3.91v-2.4h4c10.61,0,15.79-6.38,17.81-9.86a19.59,19.59,0,0,0,0-19.71c-2-3.48-7.07-9.86-18-9.86h-6v41.83h-2.65Z"/><path class="cls-5" d="M184.22,347.35a15.36,15.36,0,1,1-15.35-15.6A15.47,15.47,0,0,1,184.22,347.35Zm-28.3,0a13,13,0,1,0,13-13.33A13,13,0,0,0,155.92,347.35Z"/><path class="cls-5" d="M198.31,372.94a21.71,21.71,0,0,0,7.77,1.65c11.88,0,12.76-8.22,12.76-14.22V350.2c0-2.66-.19-7.84-3-11.56a11.65,11.65,0,0,0-9.73-4.62,13,13,0,0,0-13.52,13.71,12.79,12.79,0,0,0,2.15,7.08,14,14,0,0,0,11.37,5.88,14.53,14.53,0,0,0,10.24-4.43V359A14.43,14.43,0,0,1,206.21,363a16.13,16.13,0,0,1-13.84-7.33,15.09,15.09,0,0,1-2.21-7.9,16.15,16.15,0,0,1,8.65-14.34,16.63,16.63,0,0,1,7.4-1.64,14.34,14.34,0,0,1,11.37,5.18c3.16,4,3.67,9.29,3.67,13.27v10.17c0,5.5-.45,16.49-15.42,16.49a23.45,23.45,0,0,1-8.28-1.64Z"/></g></g></svg>